<svg id="visual" viewBox="0 0 960 540" width="960" height="540" xmlns="http://www.w3.org/2000/svg" xmlns:xlink="http://www.w3.org/1999/xlink" version="1.1"><rect x="0" y="0" width="960" height="540" fill="#1c2028"></rect><path d="M0 376L137 376L137 361L274 361L274 383L411 383L411 379L549 379L549 359L686 359L686 380L823 380L823 361L960 361L960 375L960 541L960 541L823 541L823 541L686 541L686 541L549 541L549 541L411 541L411 541L274 541L274 541L137 541L137 541L0 541Z" fill="#752aa5"></path><path d="M0 399L137 399L137 391L274 391L274 391L411 391L411 392L549 392L549 407L686 407L686 405L823 405L823 409L960 409L960 407L960 541L960 541L823 541L823 541L686 541L686 541L549 541L549 541L411 541L411 541L274 541L274 541L137 541L137 541L0 541Z" fill="#552c8a"></path><path d="M0 424L137 424L137 424L274 424L274 435L411 435L411 434L549 434L549 420L686 420L686 427L823 427L823 429L960 429L960 414L960 541L960 541L823 541L823 541L686 541L686 541L549 541L549 541L411 541L411 541L274 541L274 541L137 541L137 541L0 541Z" fill="#3b296c"></path><path d="M0 455L137 455L137 445L274 445L274 452L411 452L411 455L549 455L549 452L686 452L686 463L823 463L823 444L960 444L960 442L960 541L960 541L823 541L823 541L686 541L686 541L549 541L549 541L411 541L411 541L274 541L274 541L137 541L137 541L0 541Z" fill="#27224e"></path><path d="M0 485L137 485L137 486L274 486L274 490L411 490L411 476L549 476L549 482L686 482L686 482L823 482L823 481L960 481L960 483L960 541L960 541L823 541L823 541L686 541L686 541L549 541L549 541L411 541L411 541L274 541L274 541L137 541L137 541L0 541Z" fill="#1a1a2f"></path><path d="M0 501L137 501L137 503L274 503L274 509L411 509L411 512L549 512L549 515L686 515L686 502L823 502L823 509L960 509L960 499L960 541L960 541L823 541L823 541L686 541L686 541L549 541L549 541L411 541L411 541L274 541L274 541L137 541L137 541L0 541Z" fill="#0e0e10"></path></svg>